<svg width="118" height="130" viewBox="0 0 118 130" fill="none" xmlns="http://www.w3.org/2000/svg">
<path d="M114.434 115.562C116.598 115.575 118.01 116.771 118 118.293C117.993 119.355 117.177 120.276 116.029 120.27C113.593 120.254 114.211 118.469 113.198 118.463C110.488 118.446 108.49 123.525 106.436 127.945C105.611 129.723 105.132 130.05 104.457 130.046C102.758 130.035 102.388 125.471 101.721 123.483C100.281 126.447 97.5502 130.003 93.0801 129.975C90.508 129.96 87.9531 128.621 87.9787 124.591C88.0083 120.097 91.0006 116.872 94.047 116.891C96.3504 116.905 97.8919 119.232 97.8812 120.882C97.8525 125.315 91.8902 125.406 91.8842 126.333C91.8787 127.193 93.4345 127.535 94.3126 127.541C98.108 127.564 100.684 122.579 101.545 119.185C101.694 118.596 102.234 117.339 103.318 117.345C104.539 117.353 103.949 124.821 105.642 124.832C106.659 124.838 108.069 115.523 114.434 115.562ZM58.8849 110.177C59.3325 118.166 56.5866 121.483 55.2042 124.351C55.4274 125.468 57.3524 127.377 59.1796 127.389C59.8544 127.393 60.6728 127.067 60.879 126.801C60.7461 126.341 60.6118 125.744 60.6172 124.883C60.6472 120.254 63.72 116.371 66.3604 116.388C68.459 116.4 69.6607 119.119 69.6492 120.907C69.6351 123.019 67.7947 124.731 65.078 126.368C65.5507 126.83 66.425 127.17 67.1725 127.174C71.0339 127.198 73.0849 122.647 74.6074 118.489C74.8826 117.695 75.3664 116.577 76.3124 116.582C77.9372 116.593 78.5491 127.044 81.2494 127.06C82.4042 127.068 83.3651 124.757 83.3767 122.976C83.3853 121.652 82.9126 121.516 82.9249 119.598C82.9386 117.485 84.102 115.709 85.6626 115.719C86.6095 115.724 86.9449 116.648 86.9381 117.769C86.9103 122.002 83.7414 129.852 79.1438 129.824C75.6846 129.803 75.9921 123.986 74.7753 123.978C73.415 123.97 71.4819 129.842 64.7858 129.801C63.6976 129.794 62.5525 129.259 61.6136 128.192C59.9837 129.243 58.6235 129.697 57.0662 129.688C54.5636 129.672 53.4945 127.153 52.4814 127.146C51.2604 127.139 49.8936 129.709 45.8274 129.684C42.5785 129.664 42.0638 125.434 40.9153 125.426C39.8976 125.42 38.3139 129.638 36.6229 129.628C33.7754 129.61 33.2186 122.27 30.7097 122.254C28.7472 122.242 22.4957 129.656 20.8128 129.474C20.1364 129.402 19.8544 128.906 19.9305 128.246C20.0318 127.331 20.8543 124.887 21.1883 123.731C21.749 121.724 22.2655 119.524 22.5508 118.822C22.8336 118.115 23.5891 117.614 24.1917 117.672C24.4959 117.702 24.5833 118.257 24.6747 118.714C25.0057 120.352 25.4729 122.021 26.0116 122.024C26.9627 122.03 30.1416 116.164 31.968 116.175C34.206 116.189 34.4139 125.449 37.458 125.468C38.4757 125.474 39.2312 124.29 39.9146 122.836C40.0001 120.387 40.6984 116.894 42.7294 116.907C44.1523 116.916 44.8101 120.025 43.7739 122.732C43.753 125.968 45.9116 126.776 47.3364 126.784C48.3508 126.79 50.098 126.48 51.4853 124.341C50.7109 122.633 50.1728 119.187 50.1028 117.934C49.7402 111.521 52.3074 105.508 55.0765 105.359C57.1061 105.251 58.7178 107.136 58.8849 110.177ZM18.4441 109.086C19.0401 111.206 19.0908 113.979 18.8594 117.946C18.5577 123.366 15.7377 129.896 8.83442 129.718C2.87635 129.554 0.263207 125.768 0.0261247 120.014C-0.0858132 117.302 0.129887 114.594 1.30503 110.768C1.92802 108.719 2.47681 107.992 4.372 107.61C5.86136 107.354 5.71777 108.872 5.36917 110.661C4.60216 114.621 4.24476 116.534 4.48981 121.033C4.72479 125.796 6.9516 127.661 9.38866 127.676C13.0443 127.768 14.6864 124.802 15.3943 120.505C15.9546 117.073 15.5603 115.417 15.2256 114.358C15.0367 113.757 14.4806 112.402 14.3341 111.404C14.0096 109.193 15.2004 107.746 16.289 107.418C17.51 107.093 17.9817 107.694 18.4441 109.086ZM65.3287 119.557C64.7128 119.554 63.2922 120.204 63.2786 122.32C63.2679 123.978 63.8661 124.769 64.1403 125.107C66.103 124.523 66.6589 122.935 66.6675 121.612C66.6749 120.493 66.0676 119.562 65.3287 119.557ZM93.1476 119.534C90.5755 119.519 90.7533 123.614 91.1551 124.611C93.0524 124.293 94.2764 123.171 94.6224 122.184C94.9683 121.19 94.5711 119.543 93.1476 119.534ZM55.1054 109.323C53.7563 109.394 53.1071 113.533 53.3543 117.889C53.5115 120.731 53.9416 121.171 54.3456 121.147C55.0914 121.108 56.913 116.043 56.6814 111.948C56.5755 110.099 56.1227 109.261 55.1054 109.323ZM43.6096 106.201C44.761 106.209 45.6083 106.936 45.6968 107.997C45.8228 109.521 44.7294 111.167 43.2453 111.158C41.9515 111.15 41.2993 110.249 41.2241 109.158C41.1063 107.502 42.3252 106.194 43.6096 106.201ZM57.0454 80.5046C58.5984 81.0144 60.3708 82.4337 60.8054 83.1631C61.4203 82.9446 62.1422 82.8345 62.9737 82.8337C64.1302 82.8326 65.4323 83.0497 66.9864 83.5234C67.0591 83.048 67.1307 82.4645 67.8543 82.4641C68.9383 82.4632 68.6498 83.6668 69.0121 84.3552C69.1934 84.7195 70.0995 84.9379 70.1003 85.6664C70.1007 86.3606 69.519 86.6163 69.159 86.6168C69.0138 86.6168 68.8332 86.5804 68.724 86.5445C68.0029 86.8003 67.9711 92.0441 64.9341 92.0471C62.6929 92.0492 60.6313 90.1929 59.7244 87.8645C59.4702 87.1729 58.9291 86.7351 58.422 86.7355C57.8447 86.7359 57.5197 86.8457 56.8351 87.613C54.885 89.7609 51.6324 91.6206 47.6203 91.6242C46.39 91.6255 45.4148 91.5178 45.1614 91.5182C45.0162 91.5182 45.0162 91.5541 45.0162 91.5896C45.0162 91.8457 46.2461 92.8294 48.9216 92.8269C55.2834 92.8213 56.8364 89.212 57.8472 89.2112C57.992 89.211 58.4241 89.211 58.6779 89.7943C60.163 93.2865 63.4001 94.0854 65.4245 94.0833C67.1586 94.0814 67.0686 93.9374 67.6121 93.9365C68.1536 93.9361 68.1907 94.263 68.1907 94.4824C68.1916 95.2845 66.4187 96.2716 63.2763 96.2743C61.4319 96.276 60.3101 95.2915 59.9834 94.1984C58.1784 95.3665 55.432 96.4258 52.7198 96.4286C45.3109 96.4353 43.4276 93.1918 41.1137 92.1408C39.3401 91.3402 36.6316 92.9103 32.8318 88.6513C33.3385 88.7596 34.0265 88.7953 34.5686 88.7951C37.8916 88.7919 39.6617 87.1535 39.6592 84.5277C39.6592 84.1993 39.6223 83.8388 39.5863 83.5121C40.5997 83.9117 42.9144 85.6558 43.4603 88.7509C43.5328 89.1152 45.0141 89.4419 45.9533 89.4408C47.2559 89.4399 48.9182 88.8906 49.1691 86.7434C53.5068 86.3757 56.4336 83.787 57.0454 80.5046ZM83.1853 83.502C84.022 83.5012 85.1835 84.285 85.1852 86.2094C85.1886 89.5943 80.1162 93.7687 73.3262 93.7746C71.2286 93.7766 70.1016 92.3548 70.1003 90.9283C70.0988 88.8981 71.2225 87.0421 72.0845 86.042C72.4824 85.5769 72.882 85.2204 73.2452 85.2197C73.5358 85.2193 74.4088 85.8248 76.3687 85.8237C80.0365 85.8204 82.2423 84.217 83.1853 83.502ZM81.0093 86.6406C80.8003 86.6406 79.5662 87.7483 76.6985 87.7512L76.2261 87.7517C76.2623 88.0716 76.2985 88.2864 76.2985 88.5723C76.2993 89.4245 76.0821 90.317 75.7933 91.1699L79.7507 90.0278C81.0484 89.2068 81.4102 88.1747 81.4097 87.3895C81.4091 86.7464 81.1917 86.6406 81.0093 86.6406ZM64.0602 85.3446C63.2662 85.3455 62.6151 86.0023 62.616 86.8052C62.6164 87.6079 63.2687 88.2619 64.0627 88.2611C64.8582 88.2608 65.509 87.6053 65.5082 86.8024C65.5074 85.9995 64.8559 85.3442 64.0602 85.3446ZM30.308 71.6579C34.7418 71.6538 38.1512 75.3929 38.1559 80.7237C38.1585 83.1267 36.8428 86.6931 31.493 86.6972C25.1536 86.7026 21.2993 81.3745 21.2963 77.9164C21.2933 75.0183 23.2355 73.1835 24.4436 72.8989C23.1671 78.0559 26.0284 83.1374 31.8937 83.1321C34.8262 83.1296 36.252 81.6793 36.2495 79.1748C36.2469 76.3836 34.3033 73.5979 31.0411 73.6005C29.3924 73.6022 28.2564 74.5218 28.2573 75.7895C28.2592 77.91 30.0582 79.2512 31.9268 79.2495C33.1714 79.2483 33.9785 78.7533 33.9776 77.9402C33.9772 77.7995 33.9403 77.6231 33.8672 77.5164C33.72 77.5875 33.427 77.6578 33.0603 77.6581C31.5584 77.6593 30.349 76.8117 30.3481 75.9653C30.3477 75.2935 30.8225 74.8728 31.4817 74.8724C33.6809 74.8703 35.1854 77.0558 35.1871 78.646C35.1883 80.2669 33.9811 81.6814 31.9289 81.683C27.5678 81.6865 25.7323 78.1946 25.7301 75.8622C25.7276 73.3577 27.8879 71.66 30.308 71.6579ZM53.5834 74.3119C54.2597 74.3113 54.6166 74.8845 54.6879 75.4876C54.9352 75.2553 55.1483 75.1545 55.4694 75.1541C56.1814 75.1533 56.6092 75.6881 56.6101 76.2621C56.6101 76.6323 56.397 76.9703 56.1122 77.172C56.5402 77.3745 56.7897 77.6779 56.7901 78.1163C56.7906 78.6557 56.3636 79.061 55.7937 79.0618C55.2599 79.0618 54.9385 78.4536 54.3705 78.4543C54.0506 78.4543 53.6938 78.5912 53.5516 78.7927C53.7664 79.2647 53.8734 79.7333 53.8738 80.1711C53.8759 82.801 50.3544 84.9246 46.6896 84.9279C43.0252 84.9305 41.7063 82.7778 41.7053 81.9011C41.7053 81.6992 41.8474 81.5972 42.0968 81.5972C42.7017 81.5968 42.8447 81.7992 44.4801 81.7976C48.3947 81.7942 47.0026 76.7758 50.6667 76.7729C51.1656 76.7711 52.2701 77.1082 52.6602 77.7818C52.9444 77.4456 53.0521 77.1078 53.0517 76.8039C53.0512 76.2318 52.6581 75.7921 52.6577 75.2572C52.6573 74.6837 53.0492 74.3123 53.5834 74.3119ZM77.8883 79.6199C80.0671 79.6183 81.6574 80.2202 81.6583 81.2543L81.6591 82.0753C81.6596 82.4689 81.5919 82.8652 81.2976 83.1105C80.3618 83.8968 78.946 84.2904 77.3845 84.2921C75.4244 84.2935 73.825 83.6168 73.8246 82.9381L73.8231 81.298C73.8227 80.7969 75.2374 79.6222 77.8883 79.6199ZM89.6674 67.2346C92.5839 67.2319 95.8291 69.1771 95.8333 73.5645C95.8373 78.2361 89.0783 84.0422 88.0693 84.0432C87.2403 84.0437 86.3381 82.8787 86.3377 82.0995C86.3373 81.853 86.4454 81.533 87.1664 81.2506C90.6161 79.9003 92.5927 76.7863 92.591 75.1932C92.591 74.8388 92.4113 74.4889 91.9425 74.4893C91.3322 74.4897 88.7151 80.3631 85.7959 80.3658C83.7769 80.3676 81.7218 78.5679 81.7209 77.7169C81.7197 76.3006 87.5552 73.6782 87.5535 71.6952C87.5527 70.9509 87.1928 70.9164 86.9046 70.9168C86.1477 70.9173 81.9712 76.4056 79.2768 76.4085C78.6283 76.4089 78.0873 75.206 78.0864 74.289C78.0856 73.7937 78.4085 73.4393 79.5629 73.1896C85.7522 71.8031 84.3786 67.2391 89.6674 67.2346ZM67.4739 60.1573C69.0622 60.156 70.4019 60.7022 70.4024 61.3981C70.4032 62.3512 68.0533 61.7674 67.873 62.9008C69.5367 63.1192 69.9363 63.7049 69.9367 64.182C69.9375 64.9876 69.2132 65.2429 68.5253 65.2435C68.0198 65.244 67.4421 65.1347 66.8269 65.1355C66.032 65.136 65.2381 65.32 64.5884 66.0897C65.0579 66.1623 65.7453 66.4912 65.7462 67.2244C65.7478 69.3481 59.9292 67.5941 59.9343 73.051C59.9366 75.9418 62.9024 79.0894 67.3816 79.0854C69.6955 79.0835 71.1774 78.3131 71.1766 77.4328C71.1758 76.7378 69.9483 77.2151 69.9478 76.6285C69.9474 76.3724 70.3796 75.894 70.3792 75.4908C70.3788 75.313 70.2349 74.9823 69.9462 74.9827C69.2943 74.9832 68.0662 76.0436 65.5724 76.0458C63.6212 76.0475 61.7058 74.9172 61.7046 73.3784C61.7041 73.0492 61.8488 72.8648 62.0649 72.8648C62.2825 72.8644 62.5715 73.0119 62.8242 73.0115C63.0418 73.0115 63.0774 72.864 63.077 72.4612C63.0765 72.0582 63.0757 70.9217 63.7606 70.9215C64.4477 70.9207 65.7514 73.4841 70.74 73.4796C72.3952 73.4781 75.6125 73.1462 76.8046 72.0454C76.7717 76.0724 73.6672 81.3833 67.167 81.3892C60.412 81.3956 56.7948 75.9066 56.7901 70.8543C56.7853 65.2538 61.2943 60.163 67.4739 60.1573ZM33.7121 67.2346C35.471 67.2329 36.764 67.7382 37.9491 69.5417C39.0286 71.1636 39.2107 73.8703 39.784 74.3762C40.0718 74.6287 40.5388 74.7007 40.8622 74.7002C41.2216 74.6996 41.5446 74.663 41.7945 74.6626C44.3798 74.6605 46.1407 77.5809 46.142 78.8818C46.1433 80.0732 45.1036 80.5033 43.8121 80.5046C42.2673 80.5058 40.5076 79.6086 39.6086 78.5979C38.9266 77.8768 38.5664 76.4316 38.2771 74.6655C37.9885 72.8235 36.5513 71.2716 33.6792 70.557C31.3809 69.98 31.0578 69.5478 31.0571 68.9334C31.0563 67.9216 32.457 67.2357 33.7121 67.2346ZM41.904 75.9952C41.5104 75.9952 41.0079 76.2849 41.0087 76.8264C41.0091 77.4772 42.6244 78.6318 43.7024 78.6305C44.2391 78.6301 44.4185 78.3048 44.4185 78.0512C44.4172 77.1132 42.8021 75.9944 41.904 75.9952ZM20.9239 40.6946C21.4006 40.6942 21.6198 41.1638 21.6207 41.6329C21.622 43.364 19.3943 48.3443 19.3955 49.7499C19.3955 49.9667 19.4683 50.1467 19.6517 50.1467C20.5677 50.1459 22.3936 46.2498 22.9773 44.3012C23.306 43.2904 23.7453 42.7486 24.1485 42.7482C24.5144 42.7478 24.8449 43.1446 24.8457 43.975C24.8474 45.9223 23.0195 50.5053 21.4124 53.5739C20.1702 55.9553 18.2334 59.3818 18.2351 61.2942C18.236 62.2678 18.4179 63.2767 19.8479 64.503C17.5045 64.3611 16.552 64.1453 15.6725 62.3429C11.7625 70.0304 22.8917 69.2625 19.089 76.0813C18.3918 74.8578 12.9002 73.5993 12.8934 66.4571C12.8881 60.2897 18.3752 56.6769 18.373 54.1161C18.3726 53.6121 18.1907 53.1789 17.7141 52.7824C16.5037 51.7729 16.466 50.9449 15.516 50.9457C14.8193 50.9466 13.978 52.5338 14.8584 53.9386C15.1525 54.4074 15.4087 54.6959 15.4091 55.1292C15.4099 56.1383 13.8006 58.844 12.668 58.8453C11.5319 58.8461 10.6525 56.0727 10.6482 51.5973C10.6448 47.6299 11.5546 43.6258 12.6902 43.6246C13.0191 43.6246 13.1291 43.8406 13.1295 44.1298C13.1299 44.599 12.9848 45.5361 12.9861 47.1217C12.9873 48.819 13.3906 48.9635 13.7206 48.9635C14.964 48.9622 14.7004 41.4583 16.7142 41.4566C17.1905 41.4562 17.3375 41.9258 17.3384 42.5027C17.3397 44.1983 16.4986 46.6881 16.4999 48.0577C16.5008 48.7437 16.6843 48.9605 17.0139 48.9601C17.8938 48.9593 19.4231 40.6957 20.9239 40.6946ZM48.734 59.0515C49.0574 60.8786 49.8051 61.8283 51.4106 62.4251C54.5835 63.5816 55.0138 65.3384 55.0155 67.2036C55.0188 70.3687 52.776 74.307 47.0017 74.3119C42.3665 74.3158 39.0466 70.2414 39.0432 66.7959C39.0424 65.845 39.2914 64.7917 39.8977 64.7913C40.4332 64.7909 40.6119 65.2111 41.0387 65.6329C42.6456 67.2149 44.392 67.6338 46.9233 67.6316C49.2052 67.6295 50.8795 66.7141 50.8787 65.7645C50.8776 64.1834 47.5608 64.1516 47.5588 61.7602C47.5583 61.1621 47.9495 60.1432 48.734 59.0515ZM90.7859 68.721C90.2821 68.7214 89.7421 69.1121 89.7432 70.0683C89.744 71.1266 90.5733 71.7996 91.0416 72.0106C91.2938 72.1526 91.6906 72.2937 92.0834 72.2933C93.1299 72.2924 93.9586 72.008 93.9577 71.158C93.9569 70.0644 92.3336 68.7191 90.7859 68.721ZM52.4842 67.3473C52.1981 67.3473 51.8801 67.9085 51.0242 68.2961C49.8015 68.8491 49.3137 68.755 49.315 69.9867C49.3154 70.4435 49.2083 71.0386 49.2083 71.3548C49.2087 71.7771 49.2811 72.0238 49.7795 72.0234C51.0632 72.0222 53.0928 69.8772 53.0913 68.0481C53.0905 67.5549 52.8051 67.3468 52.4842 67.3473ZM67.0101 67.1875C69.1035 67.1856 70.5182 68.5378 70.5195 69.9306C70.5203 70.8782 69.8341 71.6857 68.8193 71.6868C67.8808 71.6876 67.2302 70.9183 67.2294 70.0427C67.2289 69.4203 67.4817 68.8335 67.4813 68.2847C67.4808 67.9175 67.3713 67.5506 67.0101 67.1875ZM98.8086 58.3879C100.604 58.3863 102.042 60.7166 102.045 63.4436C102.047 66.3469 100.686 69.5052 98.2535 71.6579C98.2135 66.817 92.2869 68.3646 92.2839 64.8498C92.2823 63.3443 93.3592 62.3379 94.6531 62.3369C95.8024 62.3361 96.7002 62.6579 97.3473 63.3047C96.7002 62.6945 96.3761 61.8337 96.3752 61.0098C96.374 59.645 97.2352 58.3896 98.8086 58.3879ZM23.6993 61.9631C25.0906 61.7246 26.11 62.6914 26.4367 63.8034C26.726 63.5432 27.1616 63.3579 27.6324 63.2979C28.8481 63.1431 30.0152 64.1346 30.1605 65.4707C30.2705 66.7714 29.3914 67.8475 28.0879 68.1016C27.9545 68.1278 27.7788 68.1464 27.7788 68.1464C27.8871 68.4062 27.9575 68.6314 27.9964 69.0007C28.142 70.3751 27.2377 71.4534 25.9071 71.6324C24.5971 71.8097 23.6262 71.0464 23.3361 69.8597C23.0464 70.0458 22.6112 70.1792 22.1433 70.2324C20.8432 70.3814 19.6917 69.4222 19.5392 68.1536C19.3658 66.7131 20.5084 65.6203 21.5626 65.4578C21.7085 65.4363 21.9221 65.403 21.9221 65.403C21.8128 65.1452 21.7612 64.888 21.7404 64.6622C21.6135 63.2735 22.4433 62.1781 23.6993 61.9631ZM78.9666 64.8333C81.672 65.0136 83.4088 66.659 83.4105 68.5987C83.4118 70.0282 82.4001 71.2342 80.918 71.2353C79.5521 71.2366 78.6469 70.2519 78.6456 69.0424C78.6448 67.9803 79.3301 67.0291 79.3293 66.003C79.3289 65.6369 79.2204 65.2333 78.9666 64.8333ZM71.8057 60.958C75.6026 61.6869 77.6648 64.5776 77.6673 67.2865C77.669 69.1549 76.515 70.8733 74.4899 70.875C72.6459 70.8765 71.3143 69.5991 71.3122 67.5472C71.3112 66.0101 72.494 64.3987 72.4928 62.8234C72.4923 62.202 72.3116 61.58 71.8057 60.958ZM24.7645 65.4467C24.0095 65.5376 23.4713 66.2408 23.5598 67.0162C23.6464 67.7912 24.331 68.3452 25.0852 68.2545C25.8393 68.1631 26.378 67.4634 26.2891 66.6876C26.2014 65.9108 25.5191 65.3551 24.7645 65.4467ZM74.1581 63.8115C73.8677 63.8117 73.9774 64.2516 73.9046 64.7274C73.869 65.0931 73.6895 65.5317 73.6895 65.8256C73.6899 66.3381 74.0522 66.7407 74.5585 66.7403C75.1367 66.7399 75.4987 66.2267 75.4983 65.6404C75.4975 64.8732 74.8092 63.811 74.1581 63.8115ZM81.3428 48.1718C81.8892 48.1709 82.657 49.9562 83.022 49.9558C83.605 49.9553 84.4055 48.4971 84.9539 48.4969C85.1344 48.4965 85.208 48.6061 85.2084 48.9343C85.2097 50.2813 84.5183 51.8124 84.5196 53.1267C84.5205 54.036 84.8141 55.093 85.7253 55.0922C86.4905 55.0917 87.1464 53.927 87.1455 52.6501C87.1438 51.1919 86.8876 50.0622 86.8872 49.478C86.887 49.2241 86.9962 49.1153 87.1421 49.1153C87.6896 49.1512 88.2008 50.6445 88.7848 50.6441C89.4415 50.6436 90.4175 49.4383 90.818 49.4379C90.9276 49.4379 90.9631 49.5839 90.9631 49.6198C90.964 50.1678 90.1267 51.3725 90.1271 51.8451C90.1275 52.2453 92.2427 52.3162 92.2432 52.6813C92.2436 53.2285 90.0268 53.2306 88.9701 53.7054C87.9495 54.1429 87.3291 54.6903 87.3295 55.4198C87.3304 56.1489 88.0601 56.2928 89.0818 56.292C91.5176 56.2898 93.2279 54.977 93.7741 54.9766C93.8837 54.9766 93.9555 55.0488 93.956 55.1587C93.9564 55.5233 92.7184 56.7265 92.7188 57.2731C92.7197 57.8925 94.9815 58.6174 94.9456 58.9829C94.909 59.0923 94.7624 59.1287 94.5075 59.1287C94.1053 59.1291 93.4871 59.0209 93.0118 59.0213C92.7205 59.0218 92.4652 59.0577 92.3551 59.2032C92.1036 59.4963 92.4305 61.4269 91.9228 61.4273C91.4484 61.4277 90.2047 57.1296 87.4051 57.1318C87.0036 57.1322 86.713 57.4601 86.7132 58.0075C86.7145 59.4638 88.1385 61.1389 89.4883 61.9396C90.0999 62.3409 91.1218 62.741 91.1222 62.9601C91.1227 63.3957 88.7961 62.9985 88.7965 63.7264C88.7974 64.3832 89.0899 65.3684 89.0908 65.9496C89.0908 66.1321 89.0544 66.3499 88.8354 66.3499C88.3986 66.3504 87.3374 64.3486 86.8277 64.349C86.3907 64.3494 85.4436 65.5511 85.0405 65.5516C84.933 65.5516 84.86 65.4428 84.8595 65.335C84.8587 64.4963 86.2063 62.5999 86.2048 60.7411C86.2039 59.8656 86.0928 57.9709 85.034 57.9722C84.1599 57.9731 83.1756 59.3577 82.7392 60.7445C82.4856 61.5457 82.6708 64.6435 82.0866 64.6444C81.5393 64.6448 81.6831 62.5676 80.9533 62.5678C80.4156 62.5687 79.2495 63.5523 78.8481 63.5528C78.7751 63.5528 78.7018 63.5164 78.7018 63.444C78.7013 63.0077 79.7577 61.5841 79.7572 61.2928C79.7568 60.7471 77.3503 60.677 77.3499 60.239C77.3495 59.9829 78.2975 59.8006 79.1719 59.6531C81.0247 59.3231 83.7584 57.9731 83.7569 56.0797C83.7548 53.9659 81.7112 53.0553 80.3693 52.1813C79.6759 51.744 78.91 51.3823 78.9093 51.0909C78.9093 50.7983 79.7853 50.7975 80.149 50.7975C80.6956 50.7966 81.2359 50.7597 81.2355 50.3225C81.2351 49.9934 81.1605 49.3395 81.1601 48.8291C81.1596 48.4638 81.1958 48.1718 81.3428 48.1718ZM44.5475 42.464C46.438 43.4816 47.8294 45.2048 47.8306 46.6093C47.8327 49.0353 45.2684 50.1616 45.2696 51.6747C45.2713 53.4319 48.0156 53.7117 48.0177 55.8909C48.0194 57.6817 45.4182 59.7589 45.4203 62.0789C45.422 63.8714 46.7074 65.3455 48.6683 65.5903C48.0266 65.7319 47.4567 65.8379 46.8506 65.8387C43.249 65.8416 39.5396 62.9287 39.5365 59.4469C39.5348 57.7244 40.2831 56.2141 41.4211 55.1233C42.4211 55.9657 43.4189 56.5265 44.0613 56.5261C44.6321 56.5253 44.8813 56.2455 44.8809 55.8237C44.8799 54.5207 39.6373 53.3321 39.6348 50.5541C39.6327 48.304 45.052 47.1049 45.0497 44.3269C45.0493 43.8696 44.8693 43.0631 44.5475 42.464ZM30.8285 42.464C30.0753 43.764 29.8975 45.4608 29.8983 46.5094C29.904 52.648 37.2652 58.3837 37.2685 62.1745C37.2698 63.7272 36.1594 65.4632 34.1153 65.4653C32.3197 65.467 31.3508 64.0212 31.3499 62.8311C31.3491 61.8909 31.9956 61.1676 32.2088 61.1672C32.3159 61.1672 32.3517 61.2396 32.3521 61.4921C32.3525 61.9983 32.7486 62.6487 33.5746 62.6483C34.3285 62.6479 34.829 62.1046 34.8281 61.4186C34.8258 58.4218 28.7572 53.1911 28.7507 46.0044C28.4281 46.7993 28.0337 47.8098 28.0353 49.3285C28.0383 52.7946 30.5536 56.4046 30.5565 59.6524C30.5578 60.9897 29.5194 62.1815 28.2268 62.1827C26.7201 62.1836 26.1805 60.9939 26.1797 60.235C26.1793 59.7286 26.3946 59.2592 26.5377 59.2592C26.7176 59.2588 26.6461 60.0179 27.4723 60.0171C28.332 60.0162 28.6549 59.4009 28.654 58.2832C28.6513 55.2869 26.9275 53.1564 26.9252 50.0501C26.9243 49.5818 26.9239 49.0758 27.0306 48.6064C26.0979 49.7279 25.9916 51.3162 25.9929 52.7243L25.996 56.4088C25.9985 58.8973 24.7444 60.0196 23.2361 60.0213C22.2684 60.0221 21.2976 59.2636 21.2963 57.928C21.2959 57.7478 21.4039 57.0982 21.6196 57.0977C21.9069 57.0973 22.123 57.8547 22.9484 57.8539C24.5274 57.8528 24.6335 56.3016 24.631 53.1949C24.6279 49.6207 26.0943 45.5363 30.8285 42.464ZM67.1298 42.464C67.5341 45.5597 71.6897 43.9893 71.6935 47.7423C71.694 48.2897 71.5486 49.0928 71.5491 49.7834C71.5499 50.5869 71.6239 51.2792 72.2359 51.2784C72.855 51.2782 73.0014 50.841 73.001 50.2567C73.0006 49.6725 72.8529 48.9451 72.8525 48.5443C72.8512 47.2674 73.7633 46.9765 74.3108 46.9765C75.6968 46.975 76.7553 48.3949 78.8343 48.393C78.362 50.7259 73.5472 50.1098 73.5498 52.6622C73.551 53.9391 74.8272 54.2271 75.6666 54.2271C76.4332 54.2262 76.6881 54.1161 76.6877 53.4618C76.6873 53.0965 76.6129 52.696 76.6129 52.4401C76.6127 52.2946 76.7232 52.1479 76.9055 52.1479C77.7083 52.1471 81.6402 55.1328 81.6411 56.045C81.6419 56.8816 77.4933 57.7238 76.29 57.7246C75.9254 57.7251 75.8519 57.4696 75.8519 57.3249C75.8515 57.0699 76.4704 56.3032 76.4699 55.8667C76.4699 55.5388 75.9233 55.3206 74.4635 55.3217C73.7709 55.3225 73.2602 55.3956 73.2606 55.9443C73.2614 56.9256 74.8687 58.1273 74.8695 59.0377C74.8699 59.767 74.4325 60.205 73.2644 60.206C72.2801 60.2069 70.7915 59.4419 70.7902 58.1671C70.7893 57.1471 71.8395 56.1264 71.8391 55.5065C71.8391 55.3238 71.6997 55.0327 71.262 55.0329C69.9128 55.0342 69.5509 58.6044 64.7763 59.0097C65.5415 58.3182 66.1961 57.5515 66.1948 55.9862C66.194 55.2203 66.0125 54.5998 66.0117 53.763C66.0104 52.6692 66.519 52.1209 67.2479 52.1201C68.5955 52.1188 69.2531 54.0135 70.1305 54.0126C70.6062 54.0122 71.1148 53.5762 71.1144 52.9197C71.1114 50.1489 65.7897 50.555 65.7863 46.6556C65.785 45.5982 66.1468 44.2864 67.1298 42.464ZM81.7063 28.3093C81.8851 28.3093 82.6378 29.2533 85.0702 29.2507C86.3223 29.2499 87.4667 28.9216 89.2915 28.9199C93.5734 28.9161 95.4733 31.9288 98.1251 35.772C99.7267 36.7858 103.556 38.4168 103.56 43.0268C103.564 47.0924 99.3084 49.3474 98.2831 53.7034C99.9203 53.5218 100.884 50.5428 102.565 50.5411C103.424 50.5403 103.818 51.2307 103.819 52.3205C103.821 53.9168 102.928 56.3142 101.212 57.8036C101.248 57.6575 101.248 57.4764 101.248 57.2577C101.247 56.2422 100.852 54.7928 99.7067 54.7932C97.9259 54.7949 97.3552 56.7548 96.3551 58.3879C95.3147 54.688 93.9165 51.3479 91.4133 49.3178C88.8799 47.2516 84.5148 48.3797 84.5112 44.6055C84.5104 43.5877 85.1533 42.1362 85.1521 40.9744C85.1521 40.5754 85.08 40.212 84.8638 39.9214C88.3007 41.2267 87.0859 43.549 89.2002 45.9427C90.5169 47.4677 94.1649 48.9163 96.2813 55.1933C96.3165 55.0123 96.3517 54.5418 96.3513 54.2144C96.3463 48.8416 89.3403 43.5839 88.7309 41.4058C92.7984 41.8744 93.5149 42.8914 95.452 48.3327C95.8459 49.4596 97.1372 52.254 97.1383 53.6323C97.7093 51.8172 98.4244 50.5449 99.5942 48.5842C98.4219 47.9695 95.3072 46.6643 95.3055 44.5223C95.3037 42.0176 98.3773 40.0546 99.0146 40.0546C99.3003 40.0541 99.3726 40.3081 99.3735 40.7807C99.3743 42.0866 98.7678 44.1924 98.7687 45.3188C98.7693 46.3339 99.4147 47.3145 99.9866 47.3136C100.595 47.3132 102.274 45.1338 102.272 42.9919C102.268 39.1426 98.9412 37.9854 97.9111 37.9863C96.9451 37.9876 95.1938 39.5858 91.0817 39.5889C83.3992 39.5961 81.6387 31.8678 81.6358 28.4909C81.6358 28.3459 81.6706 28.3093 81.7063 28.3093ZM37.7406 32.7326C38.612 32.7318 40.244 34.254 40.6812 35.8098C40.4998 35.7751 40.3184 35.7394 40.1368 35.7398C38.9754 35.7406 38.3264 36.8731 37.3839 38.7845C39.4851 37.4006 41.4418 36.2686 43.6541 36.2665C45.5385 36.2649 47.0277 37.3944 47.0293 39.1293C47.0298 39.8716 46.6674 40.6867 46.1966 41.3929C45.9047 39.8014 44.5627 39.0965 42.2426 39.0985C40.9021 39.0998 39.3054 39.3469 38.0374 39.8085C42.1354 40.3721 42.7533 41.8216 42.7544 43.1315C42.7565 45.3611 40.4731 46.4593 38.95 47.2047C39.0944 46.567 39.2028 45.8932 39.2024 45.1874C39.2011 43.8414 38.6934 42.3209 36.6237 40.8375C36.3003 42.2877 35.1416 43.1742 35.1424 44.305C35.1429 44.7304 35.4314 44.8713 35.6494 44.8713C35.6502 45.5086 35.3612 47.3132 35.3617 47.7743C35.3625 48.7281 35.5809 48.9055 36.0525 49.0109C36.3436 49.8252 36.3544 51.1902 36.5535 51.9224C36.6681 52.3393 36.9966 52.4435 37.2512 52.4431C37.5416 53.1501 37.9063 54.212 38.5961 54.7047C38.7394 54.8111 38.9208 55.0587 38.9212 55.271C38.9217 55.9085 37.9444 56.6178 37.3279 56.6186C37.1465 56.6186 36.8326 56.5093 36.5535 55.8561C36.3261 55.3201 34.5708 54.2502 34.4611 53.6127C34.57 53.5058 34.6423 53.2935 34.6423 53.0459C34.6414 52.0556 33.0455 50.924 33.0439 49.3683C33.2252 49.2969 33.4066 49.0134 33.4062 48.6944C33.4053 47.8108 32.46 46.0764 32.4593 44.9103C32.8582 44.9099 33.0762 44.8738 33.1117 44.3071C33.183 43.1402 33.4354 41.4043 34.5579 40.4142C34.3042 40.3789 33.9791 40.3436 33.5432 40.344C31.3676 40.3457 27.9966 41.5871 26.7305 44.3483C26.6578 43.9233 26.6208 43.5354 26.6204 43.1818C26.6183 40.8809 28.0307 39.3571 29.0824 38.898C29.6257 38.6496 30.2781 38.578 31.004 38.5776C32.1625 38.5764 33.5421 38.8235 34.9556 39.0699C33.7222 37.4776 31.8361 36.3119 30.2764 36.3136C29.5523 36.314 28.9714 36.5626 28.7909 37.1627C28.7179 36.8463 28.6812 36.3146 28.6809 35.9602C28.6797 34.2282 29.2591 33.2358 30.7812 33.2346C33.0288 33.2325 34.9526 35.85 36.1149 38.2894L36.1149 38.2877L36.1148 37.9757C36.1167 34.5759 36.2207 32.838 37.6106 32.7373L37.7406 32.7326ZM80.9679 44.2428C81.7654 44.242 82.3818 44.8327 82.3822 45.5279C82.3831 46.3284 81.7679 46.8865 80.9704 46.8873C80.2548 46.8877 79.6019 46.3306 79.6015 45.5303C79.6006 44.8351 80.2523 44.2432 80.9679 44.2428ZM76.4116 41.776C77.7867 41.7747 78.9112 42.8532 78.9124 44.1742C78.9137 45.4956 77.7913 46.5761 76.4162 46.5773C75.0395 46.5785 73.9167 45.5001 73.9154 44.1783C73.9142 42.8576 75.0348 41.7772 76.4116 41.776ZM71.9545 40.6671C72.7515 40.6663 73.4047 41.2911 73.4053 42.0571C73.4057 42.8233 72.7545 43.4484 71.957 43.4488C71.169 43.4496 70.5161 42.8256 70.5152 42.0596C70.5148 41.2937 71.1665 40.6679 71.9545 40.6671ZM80.8196 39.5804C81.7609 39.5796 82.5223 40.3099 82.5232 41.213C82.524 42.119 81.7641 42.8503 80.8227 42.8515C79.889 42.8523 79.127 42.1216 79.1261 41.2161C79.1253 40.3125 79.8856 39.5812 80.8196 39.5804ZM9.76085 38.4522C10.8863 40.0992 11.9343 40.6002 13.2819 40.5991C14.2917 40.5983 15.4154 40.3828 16.8754 40.0585C14.9683 41.6366 13.3583 42.4631 12.1612 42.464C10.6261 42.4652 9.76347 41.1749 9.76085 38.4522ZM67.7235 37.7477C68.8446 37.7465 69.7876 38.6513 69.7885 39.7285C69.7893 40.8085 68.8484 41.7121 67.7273 41.7133C66.6045 41.7141 65.6644 40.8122 65.6636 39.7321C65.6623 38.6549 66.6007 37.7485 67.7235 37.7477ZM76.697 37.8792C77.4935 37.8784 78.1451 38.5042 78.146 39.2692C78.1468 40.035 77.496 40.6624 76.6996 40.6633C75.9025 40.6637 75.2509 40.0376 75.25 39.2716C75.2492 38.507 75.9 37.88 76.697 37.8792ZM20.2419 34.7508C20.0917 35.1815 19.9803 35.6469 19.9807 36.4003C19.9821 37.475 20.3576 38.5506 21.406 39.5164C21.1063 39.7323 20.6213 39.8754 19.9469 39.8763C18.6347 39.8775 17.5872 39.053 17.5861 37.7634C17.5843 35.9719 19.379 34.9663 20.2419 34.7508ZM72.4205 35.3785C73.6519 35.3777 74.6317 36.3155 74.6329 37.498C74.6342 38.6823 73.6557 39.6209 72.4247 39.6218C71.2017 39.623 70.2226 38.6859 70.2214 37.5018C70.2201 36.3196 71.1975 35.3797 72.4205 35.3785ZM23.3459 31.7742C25.2198 32.309 27.5051 33.9928 27.5078 36.3939C27.5091 37.9341 26.649 39.4401 24.8142 39.4416C22.9049 39.4432 21.6667 37.8319 21.665 35.8969C21.663 34.285 22.5232 32.7063 23.3459 31.7742ZM11.0691 35.2607C11.9677 36.4426 13.4659 36.7981 14.8508 36.7968C15.3001 36.7964 15.7872 36.76 16.1977 36.689C15.2268 37.8731 14.1391 38.4123 13.2053 38.4131C11.9695 38.4144 11.0344 37.4823 11.0326 35.7978C11.0326 35.6194 11.0322 35.4409 11.0691 35.2607ZM80.5249 35.3714C81.3582 35.3706 82.0476 36.0307 82.0483 36.8293C82.0487 37.6311 81.3609 38.2932 80.5274 38.2936C79.7042 38.2944 79.0139 37.6337 79.0135 36.8322C79.0126 36.0331 79.7012 35.3722 80.5249 35.3714ZM89.9301 30.8798C89.7865 30.8798 89.6154 30.9886 89.6158 31.4251C89.6162 31.8242 89.6889 32.0788 89.6893 32.5491C89.6898 33.0215 89.5814 33.3483 89.1529 33.3488C88.1865 33.3496 87.3258 31.064 86.5028 31.0644C86.324 31.0648 86.1458 31.174 86.1462 31.3552C86.1466 31.7912 86.8621 32.5881 86.8625 32.9879C86.8633 33.8597 84.5377 33.389 84.5385 34.1156C84.5389 34.4428 84.8595 34.5499 85.2888 34.5497C86.0414 34.5488 87.2214 34.2229 87.8293 34.2225C88.1873 34.222 88.7244 34.294 88.7246 34.7645C88.725 35.2729 87.4379 35.9267 87.4383 36.3993C87.4387 36.6171 87.6536 36.7238 87.8316 36.7238C88.798 36.7231 90.5059 35.0172 91.722 35.016C91.936 35.016 92.471 35.1241 92.4714 35.4511C92.4718 35.922 91.2582 36.7572 91.2587 37.4468C91.2591 37.6288 91.3674 37.8466 91.5811 37.8466C92.2221 37.8462 93.0787 36.1403 94.2958 36.139C94.7612 36.1386 95.4414 36.3191 95.7997 36.3187C96.0856 36.3187 96.1929 36.1373 96.1929 36.0277C96.1925 35.2657 94.2948 35.1954 94.1147 33.0537C94.0782 32.7274 93.9709 32.1474 93.5764 32.1478C92.933 32.1487 93.4353 34.1444 92.7198 34.1448C91.0769 34.1465 90.5378 30.879 89.9301 30.8798ZM68.333 33.4338C69.1313 33.433 69.783 34.0595 69.7838 34.8238C69.7847 35.5888 69.1338 36.2163 68.3355 36.2171C67.5416 36.2179 66.8887 35.5913 66.8879 34.8267C66.8874 34.0621 67.5387 33.4342 68.333 33.4338ZM76.5462 31.6878C77.8137 31.6866 78.8643 32.6934 78.8656 33.9124C78.8669 35.1296 77.8179 36.1386 76.5504 36.1398C75.2831 36.141 74.2323 35.133 74.231 33.9168C74.23 32.6972 75.2789 31.689 76.5462 31.6878ZM18.547 25.9707C18.8461 25.9703 19.145 25.9827 19.3709 26.0057C20.0458 26.0769 20.5827 26.0876 20.7563 26.2556C21.0608 26.5469 20.879 27.1001 21.3571 27.724C21.835 28.3507 22.4075 28.2613 22.4084 28.943C22.4088 29.4811 21.3617 32.6718 18.6668 33.9654C17.3953 34.5736 16.3833 34.8265 15.5231 34.8269C14.0615 34.8281 13.0509 34.221 12.1533 34.2218C12.0033 34.2218 11.8164 34.2937 11.5158 34.2942C11.1809 34.2942 10.8058 33.9362 10.8053 33.6133C10.8053 33.4695 10.8475 33.3284 10.9174 33.2183C11.4392 32.393 10.958 29.1091 14.2043 27.1223C15.8477 26.1185 17.3121 25.9716 18.547 25.9707ZM102.045 23.1317C103.029 23.4783 102.928 24.9699 102.93 26.8758C102.933 30.2012 102.598 34.4227 101.716 34.5001C100.394 34.606 95.5154 30.1735 95.0704 26.8826C96.3939 27.0198 100.488 26.3581 102.045 23.1317ZM71.7659 31.6572C72.5266 31.6563 73.1426 32.2471 73.1431 32.9766C73.1439 33.7085 72.5291 34.3013 71.7684 34.3017C71.0152 34.3025 70.4001 33.7107 70.3992 32.979C70.3984 32.2499 71.0131 31.658 71.7659 31.6572ZM35.7833 19.4627C38.5536 19.4604 40.0266 21.9558 40.0293 24.7385C40.0297 25.1301 39.9941 25.5581 39.9246 25.9506C41.1142 23.9522 42.7615 22.4177 44.5486 22.4161C46.8616 22.4136 47.9142 24.4457 47.9167 26.7288C47.9175 27.726 47.6398 29.1908 47.1839 29.1912C46.7275 29.1916 46.7974 28.3706 46.7259 27.6204C46.6558 26.6581 46.4798 26.4441 46.1637 26.4445C45.5678 26.4449 45.1852 27.8718 45.186 29.1927C45.1869 30.0117 45.3277 30.9396 45.9573 30.9392C46.3078 30.9388 46.6237 30.76 46.834 30.546C46.6954 32.1862 45.5034 33.6156 43.8224 33.6173C40.7382 33.6202 39.5778 29.9464 39.2251 27.8061C37.3697 29.8054 35.6547 31.2705 32.5693 31.2732C29.6967 31.2753 28.3967 29.1367 28.3951 27.104C28.3947 26.4963 28.6037 24.928 29.3407 24.9271C30.2155 24.9263 29.4482 27.8506 31.1652 27.849C31.5866 27.8485 32.3558 27.4904 32.7757 26.3145C33.0206 25.6001 33.1605 24.8525 33.1601 24.2094C33.1593 23.2453 32.9478 22.6411 32.2487 22.6415C31.6511 22.6424 30.915 23.1051 30.6702 23.3551C31.5103 20.7856 33.5415 19.4647 35.7833 19.4627ZM14.6554 28.7344C14.2441 28.7348 13.6836 29.6324 13.6845 30.3478C13.6858 31.6755 15.0349 33.1433 16.2693 33.1424C16.9438 33.1416 17.656 32.7817 17.6555 32.5305C17.6555 32.459 17.5808 32.4231 17.468 32.352C16.3433 31.8525 15.1445 30.849 14.9176 29.0937C14.8801 28.8421 14.805 28.734 14.6554 28.7344ZM44.3396 24.7344C43.6035 24.7352 42.3808 28.2668 42.3822 30.1926C42.3831 30.9426 42.559 31.2639 42.7697 31.2635C43.6446 31.2626 44.6234 27.8367 44.6214 25.6966C44.621 25.2322 44.5503 24.7344 44.3396 24.7344ZM75.6487 22.4007C76.0662 22.9785 76.3109 24.1759 76.3117 24.7199C76.3148 28.6702 73.538 30.1944 70.9773 30.1967C69.3095 30.1984 68.4745 29.6191 68.2656 29.6191C67.6083 29.62 67.6443 30.9983 67.1927 30.9626C66.3939 30.8185 65.6654 28.9703 65.6636 27.0136C65.6628 25.8523 65.9393 24.6204 66.5608 23.7135C67.4649 24.6191 68.2612 25.0164 69.234 25.0156C69.6177 25.0151 70.0693 24.9067 70.313 24.9063C70.6241 24.9063 70.8326 25.0496 70.8326 25.3032C70.833 25.7024 70.4864 26.3557 70.0705 26.7192C70.4868 26.9001 70.9384 26.9728 71.4248 26.9723C73.3962 26.9702 75.652 25.6612 75.6487 22.4007ZM78.3179 28.3093C79.0778 28.3089 79.6955 28.9011 79.696 29.632C79.6968 30.3611 79.0802 30.9538 78.3205 30.9542C77.5593 30.955 76.9437 30.3635 76.9428 29.6344C76.9424 28.9033 77.5567 28.3101 78.3179 28.3093ZM18.3981 27.1908C17.8376 27.1912 17.426 27.2631 17.4265 27.9428C17.4274 29.0189 18.4769 30.9179 19.7882 30.9171C20.3875 30.9163 20.6868 30.2694 20.6864 29.7695C20.6864 29.5183 19.9705 29.1031 19.7113 28.7658C19.298 28.228 19.2976 27.5123 18.9607 27.3342C18.7725 27.2261 18.6605 27.1904 18.3981 27.1908ZM25.0273 26.7185C25.8497 26.7177 26.525 27.3628 26.5259 28.1501C26.5263 28.9392 25.8524 29.5861 25.0299 29.5865C24.2059 29.5873 23.5304 28.9422 23.5297 28.153C23.5289 27.3658 24.2029 26.7189 25.0273 26.7185ZM36.3816 21.1381C35.2953 21.1393 33.7943 27.3827 33.7955 28.7744C33.7955 29.0248 33.8656 29.3104 34.1819 29.31C35.3727 29.3091 36.7319 22.7445 36.7307 21.6376C36.7307 21.3521 36.6273 21.1381 36.3816 21.1381ZM41.5715 25.878C41.2209 25.8784 40.8373 26.3073 40.2769 27.2714C40.3485 28.5548 40.56 29.1257 40.9094 29.1253C41.2938 29.1249 41.8542 27.8747 41.853 26.6273C41.8521 26.02 41.7117 25.878 41.5715 25.878ZM38.2062 23.7051C37.1533 23.7063 36.6316 26.5612 36.6324 27.3107C36.6328 27.7362 36.8419 28.0937 37.0515 28.0937C37.4376 28.0933 37.9284 27.6645 38.8397 26.6298C38.9096 26.1662 38.9092 25.7374 38.9088 25.2017C38.9079 24.4898 38.6267 23.7047 38.2062 23.7051ZM84.1613 17.6933C85.3857 17.6922 85.071 19.1727 86.1915 19.1719C87.0642 19.171 88.1831 18.392 88.8485 18.3911C89.8893 18.3903 91.395 21.8695 91.3966 23.4981C91.3982 25.3863 88.7151 26.5365 85.5329 26.54C80.8906 26.5443 78.0889 22.2533 78.0864 19.4758C78.0864 19.2537 78.1919 19.1796 78.296 19.1054C78.7392 18.7905 80.7085 19.288 83.2537 17.9515C83.5674 17.7689 83.8821 17.6933 84.1613 17.6933ZM23.0752 23.493C23.9 23.4926 24.5745 24.1381 24.5753 24.9266C24.5762 25.7141 23.9026 26.3609 23.0782 26.3614C22.2553 26.3618 21.5805 25.7166 21.5796 24.9294C21.5787 24.1402 22.2523 23.4938 23.0752 23.493ZM11.99 20.0988C11.9522 20.3143 11.9522 20.4927 11.9527 20.7086C11.9544 22.7513 13.1542 24.2913 15.3268 24.8995C15.3268 24.8995 14.241 25.6872 12.8933 25.6884C11.2857 25.6895 10.01 24.5448 10.0082 22.9323C10.0069 21.8209 10.6051 20.6737 11.99 20.0988ZM100.142 17.6933C101.531 17.8659 102.076 18.835 102.077 20.0142C102.079 22.5441 98.8596 25.4227 95.3396 25.4262C94.0193 25.4274 93.1028 25.0135 93.102 24.042C93.1016 23.6258 93.4402 22.8298 94.5589 22.8286C97.6451 22.8258 100.483 20.7091 100.481 18.8021C100.481 18.248 100.379 18.0055 100.142 17.6933ZM70.5491 17.6933C72.7638 17.6912 73.6319 18.9218 73.9455 18.9218C74.2918 18.9214 74.6387 18.5579 74.9176 18.5575C75.2988 18.5571 75.2992 19.1738 75.2997 19.61C75.3009 21.0585 74.6787 23.5607 73.1161 24.4688C72.8378 23.8526 72.2824 23.1636 71.3856 22.7308C71.1433 22.6228 71.0387 22.4053 71.0383 22.1879C71.0381 21.7882 71.3844 21.2797 71.7952 21.0614C71.5167 20.5908 70.4811 20.3397 69.9965 20.3401C68.4665 20.3418 67.4279 21.4653 67.2198 22.4812C67.0812 22.1181 66.9758 21.6836 66.9754 21.2482C66.9742 19.6541 68.0138 17.6959 70.5491 17.6933ZM16.4047 17.6933C18.9515 17.6912 19.7784 20.3076 19.7797 22.0269C19.7805 22.8169 19.6312 23.5316 19.4447 24.1066C16.8606 24.1087 13.9002 22.9651 13.8976 20.1333C13.8965 18.806 14.9456 17.6946 16.4047 17.6933ZM14.1506 4.51779e-06C15.9411 -0.00167032 20.5839 0.462257 20.5848 1.51009C20.5856 2.70065 16.6736 3.89604 16.6744 5.05038C16.6757 6.42386 22.1593 5.62314 22.1606 6.81664C22.1619 8.04318 18.1808 10.791 18.1812 11.6561C18.1816 11.8007 18.3645 11.8723 18.5105 11.8723C19.4597 11.8714 21.9443 10.0646 23.0777 10.0633C23.515 10.0629 23.6618 10.3519 23.6623 10.8583C23.6635 11.8681 23.0446 13.5655 23.0455 14.611C23.0459 14.8642 23.1194 15.1532 23.4108 15.1528C24.2149 15.152 25.4926 11.7213 26.6244 11.7201C27.6485 11.7192 26.7391 16.8824 27.8 16.882C28.7124 16.8812 28.8912 12.188 29.8426 12.1874C30.755 12.1865 31.1965 14.8209 32.1479 14.8196C32.5475 14.8196 32.5844 14.3142 32.584 13.4844L32.5827 12.2571C32.5818 11.4622 32.6183 10.9223 33.02 10.9219C34.1178 10.9211 37.2251 14.5262 37.8839 14.5253C38.0305 14.5253 38.0667 14.3807 38.0667 14.2723C38.0661 13.2992 35.9792 10.0161 35.9775 8.2842C35.9771 7.7045 36.1968 7.30772 36.7818 7.3073C38.0601 7.30603 40.7664 8.78517 42.0078 8.78433C42.4108 8.78391 42.667 8.63888 42.6665 8.24147C42.6653 6.7617 38.2034 3.76869 38.2021 2.54025C38.2012 1.34928 43.1714 0.11789 46.5694 0.114943C47.0089 0.114522 47.8865 0.11368 47.887 0.582028C47.8878 1.48357 43.6699 2.25882 42.6548 3.31697C42.5218 3.45548 42.4368 3.60998 42.4434 3.76511C42.5097 5.46148 48.4441 9.39034 48.4462 11.557C48.4466 12.0266 48.0445 12.3878 47.3857 12.3882C45.4122 12.3899 41.2435 10.4449 39.8171 10.4462C39.4145 10.4466 39.3069 10.5552 39.3073 10.9162C39.3086 12.2878 42.015 16.6153 42.0165 18.5289C42.017 19.0349 41.8354 19.4326 41.3252 19.433C39.6794 19.4347 36.0206 15.1057 34.7431 15.1069C33.5726 15.1078 34.0878 18.7529 32.9908 18.7541C32.1151 18.7546 31.3442 16.6616 30.3933 16.6625C29.4436 16.6633 28.8283 23.8843 27.3309 23.886C25.5763 23.8872 26.2636 17.2079 25.0947 17.2089C24.1806 17.2093 22.9404 19.485 21.5873 19.4862C20.8569 19.4871 20.6376 18.9097 20.6368 18.0799C20.6359 17.0321 20.9635 15.5894 20.9626 14.6493C20.962 14.1433 20.9251 13.5672 20.4492 13.568C19.0953 13.5688 14.166 17.1466 12.2651 17.1483C11.8649 17.1487 11.5714 16.9679 11.5712 16.5703C11.5695 14.8015 17.8131 9.4899 17.8125 8.26399C17.8116 7.14311 10.649 8.16127 10.6482 7.07786C10.6469 5.85068 15.7256 3.7167 15.7248 2.92145C15.7239 2.09211 10.8261 1.80773 10.8253 0.868089C10.8249 0.253869 11.993 0.00211856 14.1506 4.51779e-06ZM81.8568 21.1753C81.7169 21.1753 81.6468 21.2498 81.6468 21.3601C81.6477 22.3241 83.3272 23.8026 85.9153 23.8C87.4541 23.7983 88.6069 23.056 88.6065 22.6114C88.6061 22.4657 88.3961 22.3541 87.9413 22.3545C87.4871 22.3554 86.5782 22.3189 84.8644 22.0247C83.3949 21.7661 82.2764 21.1749 81.8568 21.1753ZM98.0478 17.7646C98.7855 17.7642 99.0233 18.2492 99.0237 18.7329C99.0253 20.26 96.0165 21.5091 94.5918 21.5104C94.1174 21.5107 93.439 21.5115 93.0651 20.7512C92.7588 20.127 92.8603 19.1207 92.284 18.6715C92.8603 18.8433 93.4698 18.8425 93.9448 18.8421C95.4715 18.8408 96.9291 17.7655 98.0478 17.7646ZM42.1224 12.9698C43.1467 12.9689 47.7921 16.5749 48.4517 17.4773C48.596 17.6939 48.6693 17.9833 48.6698 18.2698C48.6706 19.3545 48.1252 20.6181 47.3932 20.6189C46.5155 20.6193 41.9409 14.4502 41.94 13.1872C41.94 13.0788 42.0116 12.9702 42.1224 12.9698ZM99.6858 0.88467C100.886 0.88363 101.168 1.418 102.932 1.41633C101.98 1.99115 101.628 3.02943 101.629 3.52876C101.631 5.03236 102.584 6.06793 102.587 9.14501C102.592 14.7946 97.38 16.8034 90.998 16.8087C89.2429 16.8103 87.372 16.6691 85.5372 16.3861C85.2559 16.3504 85.1852 16.2791 85.1852 16.1001C85.1844 15.6344 87.6893 15.3811 87.6876 13.0931C87.6868 12.1985 87.4028 11.3413 87.4024 11.0197C87.4024 10.8399 87.5432 10.7323 87.6851 10.7318C88.2139 10.7314 89.2748 12.8057 91.2421 12.8036C91.7672 12.8032 93.073 12.623 93.0714 10.9775C93.0693 8.43795 87.0818 7.79888 87.0814 7.2276C87.081 6.76269 90.4241 5.97136 92.1504 5.93444C89.5043 2.50362 85.7382 2.86445 85.7378 2.25688C85.7373 1.89771 88.5572 1.17918 91.161 1.17688C93.3453 1.1748 95.3909 1.67412 95.3922 3.35543C95.3934 4.2865 94.654 5.25366 94.6553 6.68364C94.6561 7.47121 95.0426 8.14949 96.0674 8.14866C97.1614 8.14762 97.4068 6.96751 97.4055 5.71398C97.4047 4.67821 97.2272 3.89001 97.2267 3.38943C97.2255 1.88749 98.24 0.885925 99.6858 0.88467ZM70.8265 0.0456367C71.2652 0.0452219 72.1443 1.46669 72.7205 1.43079C73.6716 1.42996 75.4624 0.254396 77.9107 0.251906C83.0576 0.247341 86.7902 3.26958 86.7948 8.43025C86.7997 13.7667 82.6355 16.7968 78.2186 16.8007C75.1123 16.8028 73.2451 14.918 72.5517 14.9188C72.0827 14.9192 71.3919 16.5571 70.9532 16.5575C70.7692 16.5575 70.6959 16.5221 70.6235 16.0942C70.5123 15.2774 70.401 13.8879 69.8142 13.8883C69.3023 13.8887 67.2221 16.205 66.5291 16.2054C66.3836 16.2058 66.3476 16.2058 66.3472 16.0269C66.3468 15.3162 68.1697 12.8233 68.1689 12.0767C68.168 11.3301 65.6847 11.7584 65.6843 11.1543C65.6834 10.4062 68.1665 9.62013 68.1657 8.6249C68.1648 7.62779 65.7909 7.4871 65.7901 6.70518C65.7897 6.27791 68.0166 5.67031 68.016 5.0293C68.0156 4.39036 65.7494 1.9004 65.7488 1.08072C65.7479 0.192349 69.1455 2.6433 70.0246 2.64247C70.4085 2.64211 70.4558 1.68943 70.4614 1.18866L70.4621 1.00581C70.4612 0.399864 70.6439 0.0456367 70.8265 0.0456367ZM77.8764 1.92529C75.646 1.92717 74.2211 2.8172 74.2219 3.63605C74.2224 4.13533 74.6611 4.20567 75.0276 4.20526C75.7582 4.20443 77.5122 3.5271 77.8415 3.52669C78.0964 3.52648 78.2433 3.59683 78.2433 3.77529C78.2437 4.16749 77.4758 5.0212 77.4766 5.52007C77.4771 6.19615 81.4912 5.69397 81.4921 6.4074C81.4925 7.0812 78.5393 7.72553 78.5398 8.15259C78.5402 8.61597 80.9175 10.1439 80.9183 10.9271C80.9183 11.0702 80.8464 11.2128 80.5912 11.2132C79.8229 11.214 78.3596 10.8231 77.3734 10.8239C77.1542 10.8239 77.0445 10.9304 77.0445 11.0734C77.045 11.6056 77.667 12.672 77.6677 13.3139C77.6677 13.5276 77.5582 13.5971 77.4123 13.5971C76.8267 13.598 75.0714 12.3907 74.2679 12.3913C73.974 12.3917 73.7558 12.6048 73.7562 12.9248C73.7568 13.5668 75.4386 14.8101 77.9982 14.8076C79.9717 14.8059 83.6556 13.5226 83.6509 8.39767C83.6472 4.34077 81.4878 1.92198 77.8764 1.92529ZM99.0217 7.36067C99.0246 10.5433 96.742 12.9771 92.6142 13.6604C93.0739 13.6952 93.4976 13.6948 93.9209 13.6944C98.7449 13.69 100.508 11.4719 100.506 9.61263C100.505 8.57436 99.9394 7.64537 99.0217 7.36067ZM13.9757 9.09817C14.4859 9.09776 15.0709 9.20384 15.0709 9.49243C15.0717 10.2155 12.2973 12.6353 11.3112 12.6362C10.9461 12.6366 10.8357 12.2042 10.8353 11.8074C10.8349 11.0869 11.1627 10.074 11.5648 9.74839C12.0377 9.3152 13.1347 9.09902 13.9757 9.09817ZM72.1764 4.52857C71.818 4.52898 71.7477 6.52215 71.2713 6.52257C70.7227 6.52298 70.0281 6.38104 69.6249 6.38167C69.5144 6.38167 69.442 6.41736 69.442 6.48874C69.4424 6.91539 70.8708 7.66099 70.8712 8.05278C70.8712 8.3018 69.4081 9.29911 69.4086 9.58382C69.4086 9.65479 69.481 9.69027 69.6645 9.68986C69.9214 9.68986 70.7628 9.72493 71.2019 9.72451C71.3855 9.7241 71.457 9.86707 71.457 10.0098L71.5329 11.4319C71.5333 11.6102 71.605 11.7532 71.7147 11.7532C72.0438 11.7528 72.6929 10.2929 73.0954 10.2925C73.4244 10.2925 74.5578 10.7911 74.8506 10.7905C74.923 10.7905 74.9601 10.7544 74.9601 10.683C74.9599 10.3626 74.1906 9.36551 74.1906 9.11857C74.1906 8.79817 76.2743 8.83199 76.2743 8.47549C76.2738 8.19057 74.2258 7.80044 74.2253 7.48025C74.2253 7.1945 75.1383 6.23454 75.1379 5.98532C75.1379 5.91331 75.0655 5.87782 74.9924 5.87824C74.6255 5.87824 73.7502 6.41362 73.2755 6.41404C72.8711 6.41445 72.4316 4.52857 72.1764 4.52857ZM25.7362 0.240604C28.1483 0.238503 27.6762 2.2624 29.5772 2.26071C31.4046 2.25924 31.0738 0.307966 33.449 0.305861C34.9475 0.304598 36.0436 0.520564 36.044 0.738004C36.0444 1.24298 34.2548 1.24466 34.2561 2.36491C34.2568 3.48347 37.5086 4.41954 37.5094 5.28509C37.5099 5.53768 37.2906 5.61009 37.071 5.61009C36.4513 5.61093 35.3175 5.10574 34.4778 5.10659C33.8927 5.10743 33.4541 5.39665 33.4546 6.01129C33.4554 7.02124 34.5541 8.57384 34.5545 9.33077C34.5549 9.58378 34.3731 9.76439 34.153 9.76439C33.2749 9.76523 32.3235 6.98608 31.0425 6.98735C29.4718 6.98861 29.9504 10.9968 28.8526 10.9975C27.7947 10.9983 29.069 6.91788 27.1321 6.91957C25.9618 6.92083 24.7213 8.7637 23.9892 8.76454C23.8068 8.76454 23.6243 8.69213 23.6243 8.47469C23.6235 7.75249 25.5968 6.12622 25.5959 5.22341C25.5955 4.75338 25.1198 4.64687 24.6075 4.64771C23.6938 4.64855 22.4151 5.00976 21.6103 5.0106C21.244 5.0106 20.9535 4.9022 20.9535 4.65087C20.9526 3.89246 24.6435 3.52789 24.6422 2.26535C24.6409 1.07227 22.924 1.25498 22.9236 0.820938C22.9232 0.496147 24.2743 0.242292 25.7362 0.240604ZM47.3776 3.65226C48.3294 3.65145 48.8032 3.68744 48.804 4.76917C48.8049 5.63598 48.6225 6.46785 48.0025 6.46806C46.942 6.4689 44.6375 5.06175 44.6366 4.4128C44.6362 3.98003 46.1726 3.65355 47.3776 3.65226ZM99.687 2.17136C99.1937 2.17178 98.8065 2.56619 98.8069 3.06802C98.8073 3.56693 99.1951 3.96009 99.6887 3.95926C100.183 3.95884 100.571 3.56526 100.57 3.06635C100.57 2.56452 100.181 2.17095 99.687 2.17136Z" fill="white"/>
</svg>
